<svg id="Layer_1" data-name="Layer 1" xmlns="http://www.w3.org/2000/svg" viewBox="0 0 287.7 53.2"><defs><style>.cls-1{fill:#fff;}</style></defs><title>logo</title><path class="cls-1" d="M17,72.1s-6.4,3-8.1,2.9,0.1,2.3,1.7,3.6,1.7-.1,2.1-0.8,5.4-4.1,5.7-4.3S18.8,71.5,17,72.1Z" transform="translate(-2.8 -33)"/><path class="cls-1" d="M14,79.7a4.9,4.9,0,0,1,6.8-.8c4.1,2.7,6.4.4,6.5-.9s0.1-3.3,1.1-2.9,9.2,3.1,11.9,2-2.2,5.8-6.8,7.3-9.8,3.9-12.5-.6-4-3.8-4.4-3.3,0.5,1.9-2.3,1.5S14,79.7,14,79.7Z" transform="translate(-2.8 -33)"/><path class="cls-1" d="M50.4,74.9" transform="translate(-2.8 -33)"/><path class="cls-1" d="M8.2,54.6a0.7,0.7,0,0,1,0-1,1.4,1.4,0,0,1,1.5,0c2.4,2.4,7.6-1.6,10.6-3.3V47.7s-0.7-6.3-5.6-5.3-12,11.8-12,20S5.1,73.9,8.5,73.1s9.8-2.6,11.8-7.4V52.1c-2,1.3-5.7,3.7-8.7,3.7A5.2,5.2,0,0,1,8.2,54.6Z" transform="translate(-2.8 -33)"/><path class="cls-1" d="M32.7,44.3c-4.9-1.8,3.5-1.3,4.8-.3s0.9-1.8.4-2.1-5.1-3.1-8.6-.4c-5.4,4.1-4-4.1-4.1-6a2.3,2.3,0,0,0-2.4-2.4c-1.1,0-1.6.2-1.9,1.5l0.2,41.9s0.3,2,3.1,1.5a2.7,2.7,0,0,0,1.4-3,4.8,4.8,0,0,1-.1-0.9V70.5s14.9,7.1,18.8.8S41.6,45.8,32.7,44.3Zm-7.2,5.2S29,47,29.7,48.3s-1,2.3-3.3,2S25.5,49.5,25.5,49.5ZM41.5,65.2c-1.1.8-2.8,1.1-5.1,1.1a33.7,33.7,0,0,1-4.7-.4c-0.1,0-6.7-1-7.3-1.9a0.9,0.9,0,0,1,1.2-1.3c1.3,0.6,12.1,3,14.9.9a1.6,1.6,0,0,0,.9-1.3,4.2,4.2,0,0,0-1.7-2.5l-0.2.2c-1.4,1.1-3.7,1.5-6.2,1.5a43.3,43.3,0,0,1-8.6-1,0.9,0.9,0,0,1,.4-1.8c2.9,0.6,10.8,1.9,13.2-.1a1.9,1.9,0,0,0,.9-1.5,2.8,2.8,0,0,0-1.4-1.6,6.9,6.9,0,0,1-3.3,1.1L30,57a25.4,25.4,0,0,1-4.8-.5H24.7a0.9,0.9,0,0,1,.3-1.8h0.5a23.2,23.2,0,0,0,8.8.2c1.8-.2,2.5-0.7,2.6-1s-1.1-2.2-2.4-3.1a0.9,0.9,0,0,1,1.1-1.5c0.6,0.4,3.4,2.6,3.1,4.7A4.5,4.5,0,0,1,41,57a2.8,2.8,0,0,1-.2,1.4c0.9,0.7,2.4,2.2,2.4,3.9A3.4,3.4,0,0,1,41.5,65.2Z" transform="translate(-2.8 -33)"/><path class="cls-1" d="M53.4,59.5a4.5,4.5,0,0,0,.7,1.3,2.3,2.3,0,0,0,1.9.9,1.5,1.5,0,0,0,1-.4,1.3,1.3,0,0,0,.4-1.1,1.5,1.5,0,0,0-.4-1.1l-1.2-.9-1.1-.7L54,57.1a1.9,1.9,0,0,1-.5-1.3,2.1,2.1,0,0,1,.6-1.6,2.3,2.3,0,0,1,1.7-.6l1,0.2L57.5,54h0.3V53.5h0.3l0.3,2.7H58.2a2.8,2.8,0,0,0-1-1.7,2.3,2.3,0,0,0-1.3-.5,1.4,1.4,0,0,0-.9.3,1,1,0,0,0-.4.8,1.2,1.2,0,0,0,.3.8l0.9,0.7,1.1,0.7a5.7,5.7,0,0,1,1.5,1.2,2,2,0,0,1,.4,1.3,2.1,2.1,0,0,1-.7,1.6,2.8,2.8,0,0,1-1.9.7L54.9,62l-0.7-.2H53.9v0.3H53.5l-0.4-2.7h0.3Z" transform="translate(-2.8 -33)"/><path class="cls-1" d="M61.2,54.7a4.2,4.2,0,0,1,5.7,0,4.7,4.7,0,0,1,0,6.5,4,4,0,0,1-2.8,1.1A3.9,3.9,0,0,1,61.2,61,4.3,4.3,0,0,1,60,57.9,4.3,4.3,0,0,1,61.2,54.7Zm0.9,6.1a2.4,2.4,0,0,0,3.8,0,4.5,4.5,0,0,0,.8-2.9,4.5,4.5,0,0,0-.8-3,2.4,2.4,0,0,0-1.9-.9,2.4,2.4,0,0,0-1.9.9,4.5,4.5,0,0,0-.8,2.9A4.5,4.5,0,0,0,62.2,60.8Z" transform="translate(-2.8 -33)"/><path class="cls-1" d="M74.7,53.8L75.5,54h0.3l0.2-.3h0.3v2.8H76.1a4.1,4.1,0,0,0-.7-1.4,2.5,2.5,0,0,0-2.1-1,2.6,2.6,0,0,0-2.1,1,4.5,4.5,0,0,0-.8,2.9,3.9,3.9,0,0,0,.9,2.7,2.8,2.8,0,0,0,2.2,1,3.6,3.6,0,0,0,1.8-.5l1-.8,0.2,0.2a4.2,4.2,0,0,1-1,.9,4.4,4.4,0,0,1-5.5-.6A4.2,4.2,0,0,1,69,58a4.3,4.3,0,0,1,1.2-3.1,4.1,4.1,0,0,1,3.2-1.3Z" transform="translate(-2.8 -33)"/><path class="cls-1" d="M77.2,61.8l1-.2a1.2,1.2,0,0,0,.2-0.9V55.1a1.2,1.2,0,0,0-.2-0.9l-1-.2V53.7h3.7V54l-1,.2a1.2,1.2,0,0,0-.2.9v5.6a1.2,1.2,0,0,0,.2.9l1,0.2V62H77.2V61.8Z" transform="translate(-2.8 -33)"/><path class="cls-1" d="M81.3,61.8l0.9-.2a1.2,1.2,0,0,0,.2-0.9V55.1a1.3,1.3,0,0,0-.2-0.9L81.3,54V53.7H88v1.8H87.7a1.8,1.8,0,0,0-.5-1.1,2.7,2.7,0,0,0-1.4-.2h-2a0.6,0.6,0,0,0-.1.3v2.8h1.9a1.5,1.5,0,0,0,1-.2,2.1,2.1,0,0,0,.4-1h0.3v2.9H87a2.1,2.1,0,0,0-.4-1,1.5,1.5,0,0,0-1-.2H83.7V61a0.4,0.4,0,0,0,.2.4h1.4a4.8,4.8,0,0,0,1.9-.3,2.5,2.5,0,0,0,1.1-1.3h0.3L88.1,62H81.3V61.8Z" transform="translate(-2.8 -33)"/><path class="cls-1" d="M89,61.8l0.9-.2a1.2,1.2,0,0,0,.2-0.9V55.1a1.3,1.3,0,0,0-.2-0.9L89,54V53.7h3.4a6.7,6.7,0,0,1,2.9.6,3.7,3.7,0,0,1,2.1,3.6,4.3,4.3,0,0,1-.4,1.8,3.7,3.7,0,0,1-1.2,1.4l-1,.6a6.8,6.8,0,0,1-2.4.4H89V61.8Zm2.5-.3h0.6a4.6,4.6,0,0,0,2.4-.6A3.3,3.3,0,0,0,96,57.9,3.5,3.5,0,0,0,94.8,55a4.2,4.2,0,0,0-2.7-.8H91.5a0.4,0.4,0,0,0-.1.4V61A0.4,0.4,0,0,0,91.5,61.5Z" transform="translate(-2.8 -33)"/><path class="cls-1" d="M98.1,62V61.8a1,1,0,0,0,.7-0.4,10,10,0,0,0,.8-1.7l2.6-6.1h0.2l3.1,7.1a3,3,0,0,0,.5.9l0.6,0.2V62h-3.2V61.8h0.7a0.3,0.3,0,0,0,.2-0.3V61l-0.2-.5-0.5-1.2h-3.3l-0.6,1.5a1.4,1.4,0,0,0-.1.4,0.4,0.4,0,0,0,.3.4h0.6V62H98.1Zm5.4-3.2L102,55.3l-1.4,3.4h2.9Z" transform="translate(-2.8 -33)"/><path class="cls-1" d="M107.1,61.8l0.9-.2a1.2,1.2,0,0,0,.2-0.9V55.1a1.3,1.3,0,0,0-.2-0.9l-0.9-.2V53.7h3.4a6.7,6.7,0,0,1,2.9.6,3.7,3.7,0,0,1,2.1,3.6,4.3,4.3,0,0,1-.4,1.8,3.7,3.7,0,0,1-1.2,1.4l-1,.6a6.8,6.8,0,0,1-2.4.4h-3.5V61.8Zm2.5-.3h0.6a4.6,4.6,0,0,0,2.4-.6,3.3,3.3,0,0,0,1.5-3.1,3.5,3.5,0,0,0-1.2-2.9,4.2,4.2,0,0,0-2.7-.8h-0.6a0.4,0.4,0,0,0-.1.4V61A0.4,0.4,0,0,0,109.6,61.5Z" transform="translate(-2.8 -33)"/><path class="cls-1" d="M119.2,61.8a1.5,1.5,0,0,0,1-.4,2.3,2.3,0,0,0,.2-1.3V55.1a1.3,1.3,0,0,0-.2-0.9,1.7,1.7,0,0,0-1-.2V53.7h2.5l2.9,6.2,2.8-6.2h2.5V54l-0.9.3a1.3,1.3,0,0,0-.2.9v5.6a1.3,1.3,0,0,0,.2.9l0.9,0.3V62h-3.5V61.8a1.5,1.5,0,0,0,.9-0.3,1.7,1.7,0,0,0,.2-1V54.9L124.3,62h-0.2L121,55.2v5a2,2,0,0,0,.3,1.3l0.9,0.3V62h-2.9V61.8Z" transform="translate(-2.8 -33)"/><path class="cls-1" d="M130.4,61.8l0.9-.2a1.2,1.2,0,0,0,.2-0.9V55.1a1.3,1.3,0,0,0-.2-0.9l-0.9-.3V53.7H137v1.8h-0.3a1.8,1.8,0,0,0-.5-1.1,2.7,2.7,0,0,0-1.4-.2h-2a0.6,0.6,0,0,0-.1.3v2.8h1.9a1.5,1.5,0,0,0,1-.2,2.1,2.1,0,0,0,.4-1h0.3v2.9h-0.3a2.1,2.1,0,0,0-.4-1,1.5,1.5,0,0,0-1-.2h-1.9V61a0.4,0.4,0,0,0,.2.4h1.4a4.8,4.8,0,0,0,1.9-.3,2.5,2.5,0,0,0,1.1-1.3h0.3L137.1,62h-6.8V61.8Z" transform="translate(-2.8 -33)"/><path class="cls-1" d="M138,61.8l0.8-.3,1-1.2,1.9-2.4-1.4-2a10.7,10.7,0,0,0-1.3-1.6,1.5,1.5,0,0,0-1-.3V53.7h3.8V54h-0.7a0.3,0.3,0,0,0-.2.3,0.9,0.9,0,0,0,.1.4l0.2,0.3,1.3,1.9,1.4-1.7,0.4-.6V54.4a0.4,0.4,0,0,0-.3-0.4h-0.6V53.7h3V54l-0.8.2a4.2,4.2,0,0,0-1.1,1l-1.8,2.3,2.4,3.4,0.6,0.7,0.7,0.2V62h-3.7V61.8h0.7a0.3,0.3,0,0,0,.2-0.3,1.6,1.6,0,0,0-.3-0.7l-1.5-2.3-1.5,1.8-0.4.6-0.2.4a0.4,0.4,0,0,0,.3.4h0.6V62H138V61.8Z" transform="translate(-2.8 -33)"/><path class="cls-1" d="M147.1,61.8l1-.2a1.2,1.2,0,0,0,.2-0.9V55.1a1.2,1.2,0,0,0-.2-0.9l-1-.2V53.7h3.7V54l-1,.2a1.2,1.2,0,0,0-.2.9v5.6a1.2,1.2,0,0,0,.2.9l1,0.2V62h-3.7V61.8Z" transform="translate(-2.8 -33)"/><path class="cls-1" d="M157.1,53.8l0.8,0.2h0.3l0.2-.3h0.3v2.8h-0.3a4.1,4.1,0,0,0-.7-1.4,2.5,2.5,0,0,0-2.1-1,2.6,2.6,0,0,0-2.1,1,4.5,4.5,0,0,0-.8,2.9,3.9,3.9,0,0,0,.9,2.7,2.8,2.8,0,0,0,2.2,1,3.6,3.6,0,0,0,1.8-.5l1-.8,0.2,0.2a4.2,4.2,0,0,1-1,.9,4.4,4.4,0,0,1-5.5-.6,4.2,4.2,0,0,1-1.1-3,4.3,4.3,0,0,1,1.2-3.1,4.1,4.1,0,0,1,3.2-1.3Z" transform="translate(-2.8 -33)"/><path class="cls-1" d="M159.6,62V61.8a1,1,0,0,0,.7-0.4,10,10,0,0,0,.8-1.7l2.6-6.1h0.2l3.1,7.1a3,3,0,0,0,.5.9l0.6,0.2V62h-3.2V61.8h0.7a0.3,0.3,0,0,0,.2-0.3V61l-0.2-.5-0.5-1.2h-3.3l-0.6,1.5a1.4,1.4,0,0,0-.1.4,0.4,0.4,0,0,0,.3.4h0.6V62h-2.5Zm5.4-3.2-1.4-3.4-1.4,3.4H165Z" transform="translate(-2.8 -33)"/><path class="cls-1" d="M168.6,61.8a1.5,1.5,0,0,0,1-.4,2.3,2.3,0,0,0,.2-1.3V54.6l-0.2-.2-0.5-.4h-0.6V53.7h2.1l4.8,6V55.6a2,2,0,0,0-.3-1.3l-0.9-.3V53.7h2.9V54a1.5,1.5,0,0,0-1,.3,2.1,2.1,0,0,0-.2,1.3v6.6H176l-5.5-6.9v4.9a2.1,2.1,0,0,0,.3,1.3l0.9,0.3V62h-2.9V61.8Z" transform="translate(-2.8 -33)"/><path class="cls-1" d="M177.7,62V61.8a1,1,0,0,0,.7-0.4,10,10,0,0,0,.8-1.7l2.6-6.1h0.2l3.1,7.1a3,3,0,0,0,.5.9l0.6,0.2V62h-3.2V61.8h0.7a0.3,0.3,0,0,0,.2-0.3V61l-0.2-.5-0.5-1.2H180l-0.6,1.5a1.4,1.4,0,0,0-.1.4,0.4,0.4,0,0,0,.3.4h0.6V62h-2.5Zm5.4-3.2-1.4-3.4-1.4,3.4h2.9Z" transform="translate(-2.8 -33)"/><path class="cls-1" d="M52.8,76.8l0.9-.2a1.2,1.2,0,0,0,.2-0.9V70.1a1.3,1.3,0,0,0-.2-0.9L52.8,69V68.8h3.4a6.7,6.7,0,0,1,2.9.6,3.6,3.6,0,0,1,2.1,3.6,4.3,4.3,0,0,1-.4,1.8,3.6,3.6,0,0,1-1.2,1.4l-1,.6a6.8,6.8,0,0,1-2.4.4H52.8V76.8Zm2.5-.3H56a4.6,4.6,0,0,0,2.4-.6,3.3,3.3,0,0,0,1.5-3.1A3.5,3.5,0,0,0,58.6,70a4.2,4.2,0,0,0-2.7-.8H55.4a0.4,0.4,0,0,0-.1.4v6.4A0.4,0.4,0,0,0,55.4,76.5Z" transform="translate(-2.8 -33)"/><path class="cls-1" d="M61.8,76.8l0.9-.2a1.2,1.2,0,0,0,.2-0.9V70.1a1.3,1.3,0,0,0-.2-0.9L61.8,69V68.8h6.7v1.8H68.2a1.8,1.8,0,0,0-.5-1.1,2.6,2.6,0,0,0-1.4-.2h-2a0.6,0.6,0,0,0-.1.3v2.8h1.9a1.5,1.5,0,0,0,1-.2,2.1,2.1,0,0,0,.4-1h0.3v2.9H67.5a2.1,2.1,0,0,0-.4-1,1.5,1.5,0,0,0-1-.2H64.2V76a0.4,0.4,0,0,0,.2.4h1.4a4.8,4.8,0,0,0,1.9-.3,2.5,2.5,0,0,0,1.1-1.3h0.3L68.6,77H61.8V76.8Z" transform="translate(-2.8 -33)"/><path class="cls-1" d="M78.5,68.8L79.3,69h0.3l0.2-.3h0.3v2.8H79.9a4.1,4.1,0,0,0-.7-1.4,2.5,2.5,0,0,0-2.1-1,2.6,2.6,0,0,0-2.1,1,4.5,4.5,0,0,0-.8,2.9,3.9,3.9,0,0,0,.9,2.7,2.8,2.8,0,0,0,2.2,1,3.6,3.6,0,0,0,1.8-.5l1-.8,0.2,0.2a4.2,4.2,0,0,1-1,.9,4.4,4.4,0,0,1-5.5-.6,4.2,4.2,0,0,1-1.1-3,4.3,4.3,0,0,1,1.2-3.1,4.1,4.1,0,0,1,3.2-1.3Z" transform="translate(-2.8 -33)"/><path class="cls-1" d="M81,76.8l1-.2a1.2,1.2,0,0,0,.2-0.9V70.1a1.2,1.2,0,0,0-.2-0.9L81,69V68.8h3.7V69l-1,.2a1.2,1.2,0,0,0-.2.9v5.6a1.2,1.2,0,0,0,.2.9l1,0.2V77H81V76.8Z" transform="translate(-2.8 -33)"/><path class="cls-1" d="M85.1,76.8a1.4,1.4,0,0,0,.9-0.3,1.8,1.8,0,0,0,.2-1V70.1a1.3,1.3,0,0,0-.2-0.9L85.1,69V68.8h3.5a5.1,5.1,0,0,1,1.8.3,1.9,1.9,0,0,1,1.4,1.9,1.8,1.8,0,0,1-.6,1.4,3.3,3.3,0,0,1-1.7.7l2.6,3.2,0.5,0.4,0.6,0.2V77h-2L88,73.2H87.5v2.5a1.2,1.2,0,0,0,.2.9l0.9,0.2V77H85.1V76.8Zm4.3-4.3a1.5,1.5,0,0,0,1-1.5,1.5,1.5,0,0,0-.9-1.5l-1.3-.2H87.6a0.4,0.4,0,0,0-.1.4v3.1Z" transform="translate(-2.8 -33)"/><path class="cls-1" d="M97.1,68.8V69l-0.9.2a1.2,1.2,0,0,0-.2.9v4a3.6,3.6,0,0,0,.3,1.5,1.9,1.9,0,0,0,1.9,1,2.1,2.1,0,0,0,2.1-1,4.1,4.1,0,0,0,.3-1.8V70.6a2.1,2.1,0,0,0-.2-1.3,1.5,1.5,0,0,0-.9-0.3V68.8h2.9V69a1.4,1.4,0,0,0-1,.4,2.3,2.3,0,0,0-.2,1.3v3.3a4.3,4.3,0,0,1-.4,2,3.6,3.6,0,0,1-5.6,0,3.8,3.8,0,0,1-.4-1.9V70.1a1.2,1.2,0,0,0-.2-0.9L93.5,69V68.8h3.6Z" transform="translate(-2.8 -33)"/><path class="cls-1" d="M102.7,75.8h0.4a0.7,0.7,0,0,1,.6.5,0.6,0.6,0,0,0,.4.5,0.3,0.3,0,0,0,.3-0.2,2,2,0,0,0,.1-0.7V70.1a1.2,1.2,0,0,0-.2-0.9l-0.9-.2V68.8H107V69a1.5,1.5,0,0,0-.9.3,1.3,1.3,0,0,0-.2.9v4.6a2.5,2.5,0,0,1-.6,1.9,2,2,0,0,1-1.5.6,1.4,1.4,0,0,1-.9-0.3,0.8,0.8,0,0,1-.3-0.6A0.6,0.6,0,0,1,102.7,75.8Z" transform="translate(-2.8 -33)"/><path class="cls-1" d="M107.4,77V76.8a1,1,0,0,0,.7-0.4,10,10,0,0,0,.8-1.7l2.6-6.1h0.2l3.1,7.1a3,3,0,0,0,.5.9l0.6,0.2V77h-3.2V76.8h0.7a0.3,0.3,0,0,0,.2-0.3V76l-0.2-.5-0.5-1.2h-3.3l-0.6,1.5a1.4,1.4,0,0,0-.1.4,0.4,0.4,0,0,0,.3.4h0.6V77h-2.5Zm5.4-3.2-1.4-3.4L110,73.8h2.9Z" transform="translate(-2.8 -33)"/><path class="cls-1" d="M116.5,76.8a1.5,1.5,0,0,0,1-.4,2.3,2.3,0,0,0,.2-1.3V69.7l-0.2-.2-0.5-.4h-0.6V68.8h2.1l4.8,6V70.6a2,2,0,0,0-.3-1.3l-0.9-.3V68.8h2.9V69a1.5,1.5,0,0,0-1,.3,2.1,2.1,0,0,0-.2,1.3v6.6h-0.2l-5.5-6.9v4.9a2,2,0,0,0,.3,1.3l0.9,0.3V77h-2.9V76.8Z" transform="translate(-2.8 -33)"/><path class="cls-1" d="M127,69.7a4.2,4.2,0,0,1,5.7,0,4.7,4.7,0,0,1,0,6.5,4,4,0,0,1-2.8,1.1,3.9,3.9,0,0,1-2.9-1.2,4.3,4.3,0,0,1-1.2-3.1A4.3,4.3,0,0,1,127,69.7Zm0.9,6.1a2.4,2.4,0,0,0,3.8,0,4.5,4.5,0,0,0,.8-2.9,4.5,4.5,0,0,0-.8-3,2.4,2.4,0,0,0-1.9-.9,2.4,2.4,0,0,0-1.9.9A5.9,5.9,0,0,0,127.9,75.8Z" transform="translate(-2.8 -33)"/><path class="cls-1" d="M135.2,74.5a4.5,4.5,0,0,0,.7,1.3,2.3,2.3,0,0,0,1.9.9,1.5,1.5,0,0,0,1-.4,1.3,1.3,0,0,0,.4-1.1,1.5,1.5,0,0,0-.4-1.1l-1.2-.9-1.1-.7-0.8-.6a1.9,1.9,0,0,1-.5-1.3,2.1,2.1,0,0,1,.6-1.6,2.3,2.3,0,0,1,1.7-.6l1,0.2,0.7,0.2h0.3V68.6H140l0.3,2.7H140a2.8,2.8,0,0,0-1-1.7,2.3,2.3,0,0,0-1.3-.5,1.4,1.4,0,0,0-.9.3,1,1,0,0,0-.4.8,1.2,1.2,0,0,0,.3.8l0.9,0.7,1.1,0.7a5.7,5.7,0,0,1,1.5,1.2,2,2,0,0,1,.4,1.3,2.1,2.1,0,0,1-.7,1.6,2.8,2.8,0,0,1-1.9.7l-1.2-.2-0.7-.2h-0.3v0.3h-0.3l-0.4-2.7h0.3Z" transform="translate(-2.8 -33)"/><path class="cls-1" d="M144.5,68.8h7.1v2.1h-0.3a2.6,2.6,0,0,0-.6-1.3,2.3,2.3,0,0,0-1.4-.3h-0.7v6.4a1.2,1.2,0,0,0,.2.9l1,0.2V77h-3.7V76.8l1-.3a1.6,1.6,0,0,0,.2-1V69.3h-0.7a2.4,2.4,0,0,0-1.4.3,2.2,2.2,0,0,0-.6,1.3h-0.3V68.8Z" transform="translate(-2.8 -33)"/><path class="cls-1" d="M153.3,69.7a4.2,4.2,0,0,1,5.7,0,4.7,4.7,0,0,1,0,6.5,4,4,0,0,1-2.8,1.1,3.9,3.9,0,0,1-2.9-1.2,4.3,4.3,0,0,1-1.2-3.1A4.3,4.3,0,0,1,153.3,69.7Zm0.9,6.1a2.4,2.4,0,0,0,3.8,0,4.5,4.5,0,0,0,.8-2.9,4.5,4.5,0,0,0-.8-3,2.4,2.4,0,0,0-1.9-.9,2.4,2.4,0,0,0-1.9.9A5.9,5.9,0,0,0,154.3,75.8Z" transform="translate(-2.8 -33)"/><path class="cls-1" d="M160.9,76.8a1.4,1.4,0,0,0,.9-0.3,1.8,1.8,0,0,0,.2-1V70.1a1.3,1.3,0,0,0-.2-0.9l-0.9-.3V68.8h3.5a5.1,5.1,0,0,1,1.8.3,1.9,1.9,0,0,1,1.4,1.9,1.8,1.8,0,0,1-.6,1.4,3.3,3.3,0,0,1-1.7.7l2.6,3.2,0.5,0.4,0.6,0.2V77h-2l-3.1-3.9h-0.5v2.5a1.2,1.2,0,0,0,.2.9l0.9,0.2V77h-3.5V76.8Zm4.3-4.3a1.5,1.5,0,0,0,1-1.5,1.5,1.5,0,0,0-.9-1.5l-1.3-.2h-0.7a0.4,0.4,0,0,0-.1.4v3.1Z" transform="translate(-2.8 -33)"/><path class="cls-1" d="M169.3,77V76.8a1,1,0,0,0,.7-0.4,10,10,0,0,0,.8-1.7l2.6-6.1h0.2l3.1,7.1a3,3,0,0,0,.5.9l0.6,0.2V77h-3.2V76.8h0.7a0.3,0.3,0,0,0,.2-0.3V76l-0.2-.5-0.5-1.2h-3.3L171,75.8a1.4,1.4,0,0,0-.1.4,0.4,0.4,0,0,0,.3.4h0.6V77h-2.5Zm5.4-3.2-1.4-3.4-1.4,3.4h2.9Zm0.7-7.3-0.3.2L173.2,68h-0.5l1.8-1.9,0.2-.2h0.6a0.4,0.4,0,0,1,.1.3A0.4,0.4,0,0,1,175.4,66.5Z" transform="translate(-2.8 -33)"/><path class="cls-1" d="M184.2,68.8L185,69h0.3l0.2-.3h0.3v2.8h-0.3a4.1,4.1,0,0,0-.7-1.4,2.5,2.5,0,0,0-2.1-1,2.6,2.6,0,0,0-2.2,1,4.5,4.5,0,0,0-.8,2.9,3.9,3.9,0,0,0,.9,2.7,2.8,2.8,0,0,0,2.2,1,3.6,3.6,0,0,0,1.8-.5l1-.8,0.2,0.2a4.2,4.2,0,0,1-1,.9,4.4,4.4,0,0,1-5.5-.6,4.2,4.2,0,0,1-1.1-3,4.3,4.3,0,0,1,1.2-3.1,4.1,4.1,0,0,1,3.2-1.3Z" transform="translate(-2.8 -33)"/><path class="cls-1" d="M186.7,76.8l1-.2a1.2,1.2,0,0,0,.2-0.9V70.1a1.2,1.2,0,0,0-.2-0.9l-1-.2V68.8h3.7V69l-1,.2a1.2,1.2,0,0,0-.2.9v5.6a1.2,1.2,0,0,0,.2.9l1,0.2V77h-3.7V76.8Z" transform="translate(-2.8 -33)"/><path class="cls-1" d="M196.7,68.8l0.8,0.2h0.3l0.2-.3h0.3v2.8h-0.3a4.1,4.1,0,0,0-.7-1.4,2.5,2.5,0,0,0-2.1-1,2.6,2.6,0,0,0-2.1,1,4.5,4.5,0,0,0-.8,2.9,3.9,3.9,0,0,0,.9,2.7,2.8,2.8,0,0,0,2.2,1,3.6,3.6,0,0,0,1.8-.5l1-.8,0.2,0.2a4.2,4.2,0,0,1-1,.9,4.4,4.4,0,0,1-5.5-.6,4.2,4.2,0,0,1-1.1-3,4.3,4.3,0,0,1,1.2-3.1,4.1,4.1,0,0,1,3.2-1.3Z" transform="translate(-2.8 -33)"/><path class="cls-1" d="M200.7,69.7a4.2,4.2,0,0,1,5.7,0,4.7,4.7,0,0,1,0,6.5,4,4,0,0,1-2.8,1.1,3.9,3.9,0,0,1-2.9-1.2,4.3,4.3,0,0,1-1.2-3.1A4.3,4.3,0,0,1,200.7,69.7Zm0.9,6.1a2.4,2.4,0,0,0,3.8,0,4.5,4.5,0,0,0,.8-2.9,4.5,4.5,0,0,0-.8-3,2.4,2.4,0,0,0-1.9-.9,2.4,2.4,0,0,0-1.9.9A5.9,5.9,0,0,0,201.6,75.8Z" transform="translate(-2.8 -33)"/><path class="cls-1" d="M208.9,74.5a4.5,4.5,0,0,0,.7,1.3,2.3,2.3,0,0,0,1.9.9,1.5,1.5,0,0,0,1-.4,1.3,1.3,0,0,0,.4-1.1,1.5,1.5,0,0,0-.4-1.1l-1.2-.9-1.1-.7-0.8-.6a1.9,1.9,0,0,1-.5-1.3,2.1,2.1,0,0,1,.6-1.6,2.3,2.3,0,0,1,1.7-.6l1,0.2L213,69h0.3V68.6h0.3l0.3,2.7h-0.3a2.8,2.8,0,0,0-1-1.7,2.3,2.3,0,0,0-1.3-.5,1.4,1.4,0,0,0-.9.3,1,1,0,0,0-.4.8,1.2,1.2,0,0,0,.3.8l0.9,0.7,1.1,0.7a5.7,5.7,0,0,1,1.5,1.2,2,2,0,0,1,.4,1.3,2.1,2.1,0,0,1-.7,1.6,2.8,2.8,0,0,1-1.9.7l-1.2-.2-0.7-.2h-0.3v0.3H209l-0.4-2.7h0.3Z" transform="translate(-2.8 -33)"/><path class="cls-1" d="M224.3,68.8l0.8,0.2h0.4l0.2-.3h0.3v2.6h-0.3a4.8,4.8,0,0,0-.8-1.4,2.5,2.5,0,0,0-1.9-.8,2.9,2.9,0,0,0-2.1.9,4.1,4.1,0,0,0-.9,3,3.8,3.8,0,0,0,.9,2.7,3,3,0,0,0,2.3,1h1.1l0.6-.3a0.4,0.4,0,0,0,.1-0.3V74a1.3,1.3,0,0,0-.2-0.9l-0.9-.2V72.6H227v0.2l-0.6.2a1,1,0,0,0-.3.8v2.5a1.7,1.7,0,0,1-1.1.6,6.5,6.5,0,0,1-2.1.4,4.6,4.6,0,0,1-3.1-1.1,3.9,3.9,0,0,1-1.4-3.2,4.4,4.4,0,0,1,1.1-3,4.1,4.1,0,0,1,3.2-1.4Z" transform="translate(-2.8 -33)"/><path class="cls-1" d="M227.4,76.8l0.9-.2a1.2,1.2,0,0,0,.2-0.9V70.1a1.3,1.3,0,0,0-.2-0.9l-0.9-.3V68.8H234v1.8h-0.3a1.8,1.8,0,0,0-.5-1.1,2.7,2.7,0,0,0-1.4-.2h-2a0.6,0.6,0,0,0-.1.3v2.8h1.9a1.5,1.5,0,0,0,1-.2,2.1,2.1,0,0,0,.4-1h0.3v2.9h-0.3a2.1,2.1,0,0,0-.4-1,1.5,1.5,0,0,0-1-.2h-1.9V76a0.4,0.4,0,0,0,.2.4h1.4a4.8,4.8,0,0,0,1.9-.3,2.5,2.5,0,0,0,1.1-1.3h0.3L234.1,77h-6.8V76.8Z" transform="translate(-2.8 -33)"/><path class="cls-1" d="M235,76.8a1.5,1.5,0,0,0,1-.4,2.3,2.3,0,0,0,.2-1.3V69.7l-0.2-.2-0.5-.4H235V68.8h2.1l4.8,6V70.6a2,2,0,0,0-.3-1.3l-0.9-.3V68.8h2.9V69a1.5,1.5,0,0,0-1,.3,2.2,2.2,0,0,0-.2,1.3v6.6h-0.2l-5.5-6.9v4.9a2,2,0,0,0,.3,1.3l0.9,0.3V77H235V76.8Z" transform="translate(-2.8 -33)"/><path class="cls-1" d="M244.1,76.8l0.9-.2a1.2,1.2,0,0,0,.2-0.9V70.1a1.3,1.3,0,0,0-.2-0.9l-0.9-.3V68.8h6.7v1.8h-0.3a1.8,1.8,0,0,0-.5-1.1,2.6,2.6,0,0,0-1.4-.2h-2a0.6,0.6,0,0,0-.1.3v2.8h1.9a1.5,1.5,0,0,0,1-.2,2,2,0,0,0,.4-1h0.3v2.9h-0.3a2.1,2.1,0,0,0-.4-1,1.5,1.5,0,0,0-1-.2h-1.9V76a0.4,0.4,0,0,0,.2.4h1.4a4.8,4.8,0,0,0,1.9-.3,2.6,2.6,0,0,0,1.1-1.3h0.3L250.8,77h-6.8V76.8Z" transform="translate(-2.8 -33)"/><path class="cls-1" d="M251.7,76.8a1.4,1.4,0,0,0,.9-0.3,1.8,1.8,0,0,0,.2-1V70.1a1.3,1.3,0,0,0-.2-0.9l-0.9-.3V68.8h3.5a5.1,5.1,0,0,1,1.8.3,1.9,1.9,0,0,1,1.4,1.9,1.8,1.8,0,0,1-.6,1.4,3.3,3.3,0,0,1-1.7.7l2.6,3.2,0.5,0.4,0.6,0.2V77h-2l-3.1-3.9h-0.5v2.5a1.2,1.2,0,0,0,.2.9l0.9,0.2V77h-3.5V76.8Zm4.3-4.3a1.5,1.5,0,0,0,1-1.5,1.5,1.5,0,0,0-.9-1.5l-1.3-.2h-0.7a0.4,0.4,0,0,0-.1.4v3.1Z" transform="translate(-2.8 -33)"/><path class="cls-1" d="M260.1,77V76.8a1,1,0,0,0,.7-0.4,10.1,10.1,0,0,0,.8-1.7l2.6-6.1h0.2l3.1,7.1a3,3,0,0,0,.5.9l0.6,0.2V77h-3.2V76.8h0.7a0.3,0.3,0,0,0,.2-0.3V76l-0.2-.5-0.5-1.2h-3.3l-0.6,1.5a1.4,1.4,0,0,0-.1.4,0.4,0.4,0,0,0,.3.4h0.6V77h-2.5Zm5.4-3.2-1.4-3.4-1.4,3.4h2.9Z" transform="translate(-2.8 -33)"/><path class="cls-1" d="M269.1,76.8l0.9-.2a1.2,1.2,0,0,0,.2-0.9V70.1a1.3,1.3,0,0,0-.2-0.9l-0.9-.3V68.8h3.5V69l-0.9.2a1,1,0,0,0-.2.8v6a0.6,0.6,0,0,0,.1.3h1.2a6.1,6.1,0,0,0,2.3-.3,2.9,2.9,0,0,0,1.1-1.4h0.3L275.9,77h-6.7V76.8Z" transform="translate(-2.8 -33)"/><path class="cls-1" d="M276.8,76.8l0.9-.2a1.2,1.2,0,0,0,.2-0.9V70.1a1.3,1.3,0,0,0-.2-0.9l-0.9-.3V68.8h6.7v1.8h-0.3a1.8,1.8,0,0,0-.5-1.1,2.6,2.6,0,0,0-1.4-.2h-2a0.6,0.6,0,0,0-.1.3v2.8h1.9a1.5,1.5,0,0,0,1-.2,2,2,0,0,0,.4-1h0.3v2.9h-0.3a2.1,2.1,0,0,0-.4-1,1.5,1.5,0,0,0-1-.2h-1.9V76a0.4,0.4,0,0,0,.2.4h1.4a4.8,4.8,0,0,0,1.9-.3,2.6,2.6,0,0,0,1.1-1.3h0.3L283.6,77h-6.8V76.8Z" transform="translate(-2.8 -33)"/><path class="cls-1" d="M285.1,74.5a4.5,4.5,0,0,0,.7,1.3,2.3,2.3,0,0,0,1.9.9,1.5,1.5,0,0,0,1-.4,1.3,1.3,0,0,0,.4-1.1,1.5,1.5,0,0,0-.4-1.1l-1.2-.9-1.1-.7-0.8-.6a1.9,1.9,0,0,1-.5-1.3,2.1,2.1,0,0,1,.6-1.6,2.3,2.3,0,0,1,1.7-.6l1,0.2,0.7,0.2h0.3V68.6h0.3l0.3,2.7h-0.3a2.8,2.8,0,0,0-1-1.7,2.3,2.3,0,0,0-1.3-.5,1.4,1.4,0,0,0-.9.3,1,1,0,0,0-.4.8,1.2,1.2,0,0,0,.3.8l0.9,0.7,1.1,0.7a5.7,5.7,0,0,1,1.5,1.2,2,2,0,0,1,.4,1.3,2.1,2.1,0,0,1-.7,1.6,2.8,2.8,0,0,1-1.9.7l-1.2-.2-0.7-.2h-0.3v0.3h-0.3l-0.4-2.7h0.3Z" transform="translate(-2.8 -33)"/></svg>