<svg id="Layer_1" data-name="Layer 1" xmlns="http://www.w3.org/2000/svg" viewBox="0 0 275.5 124.8"><defs><style>.cls-1{fill:#434444;}.cls-2{font-size:98.43px;}.cls-2,.cls-3{fill:#fff;font-family:Frutiger LT Std;font-weight:700;}.cls-3{font-size:23.82px;}</style></defs><title>fr</title><path class="cls-1" d="M142.2,0H258.3a17.2,17.2,0,0,1,17.2,17.2v89.9a17.2,17.2,0,0,1-17.2,17.2H142.2a0,0,0,0,1,0,0V0A0,0,0,0,1,142.2,0Z"/><path class="cls-1" d="M121.4,70.4H-118.5a17.7,17.7,0,0,1-17.7-17.7V-36.6a17.7,17.7,0,0,1,17.7-17.7H121.4a17.7,17.7,0,0,1,17.7,17.7V52.7A17.7,17.7,0,0,1,121.4,70.4ZM-118.5-53.3a16.7,16.7,0,0,0-16.7,16.7V52.7a16.7,16.7,0,0,0,16.7,16.7H121.4a16.7,16.7,0,0,0,16.7-16.7V-36.6a16.7,16.7,0,0,0-16.7-16.7H-118.5Z" transform="translate(136.2 54.4)"/><text class="cls-2" transform="translate(148 86.1)">FR</text><text class="cls-3" transform="translate(154.1 106.7)">MEDICAL</text><path class="cls-1" d="M-33.7,55.5l-2.6-.3c-5.8-1.1-11.9-6.2-17.2-14.3s-7.8-15.1-8.8-21.6c-1.5-9.5-4.8-49.6-5-51.3a2.6,2.6,0,0,1,2.3-2.8,2.6,2.6,0,0,1,2.8,2.3c0,0.4,3.4,41.6,4.9,50.9,1.8,11.1,12,29.8,21.9,31.7,4.2,0.8,8.2-1.7,11.7-7.5a2.6,2.6,0,0,1,3.5-.9,2.6,2.6,0,0,1,.9,3.5C-24.1,53.4-29.4,55.5-33.7,55.5Z" transform="translate(136.2 54.4)"/><path class="cls-1" d="M-62.6-24.4h-1.1a2.6,2.6,0,0,1-2.4-2.7,2.5,2.5,0,0,1,2.7-2.4h0c0.2,0,15.5.6,21.1-8.7a2.6,2.6,0,0,1,3.5-.9,2.6,2.6,0,0,1,.9,3.5C-44.2-25.2-58.5-24.4-62.6-24.4Z" transform="translate(136.2 54.4)"/><path class="cls-1" d="M-45.9-15c-10.3,0-18.7-8.7-19.1-9.1a2.6,2.6,0,0,1,.1-3.6,2.6,2.6,0,0,1,3.6.1c0.1,0.1,8.1,8.3,16.7,7.4,4.7-.5,8.9-3.6,12.5-9.4a2.6,2.6,0,0,1,3.5-.8,2.6,2.6,0,0,1,.8,3.5c-4.5,7.1-10,11.1-16.4,11.7h-1.8Z" transform="translate(136.2 54.4)"/><path class="cls-1" d="M-44.3-.5A36.8,36.8,0,0,1-63.3-6.3a2.6,2.6,0,0,1-.6-3.6,2.6,2.6,0,0,1,3.6-.6c0.8,0.6,20,13.5,34.8-5.1a2.6,2.6,0,0,1,3.6-.4,2.6,2.6,0,0,1,.4,3.6C-28.9-3.2-37.1-.5-44.3-0.5Z" transform="translate(136.2 54.4)"/><path class="cls-1" d="M-37.8,11.3c-13,0-24.6-7.1-24.8-7.3A2.6,2.6,0,0,1-63.4.5a2.6,2.6,0,0,1,3.5-.8A50.8,50.8,0,0,0-44.7,5.6C-33.9,7.7-25.2,5-19.1-2.6a2.6,2.6,0,0,1,3.6-.4A2.6,2.6,0,0,1-15.1.7,28,28,0,0,1-37.8,11.3Z" transform="translate(136.2 54.4)"/><path class="cls-1" d="M-37.5,24c-12.7,0-23.7-6.5-23.9-6.6a2.6,2.6,0,0,1-.9-3.5,2.6,2.6,0,0,1,3.5-.9h0a49,49,0,0,0,14.1,5.2c10.3,2,18.7-.1,25.2-6.4a2.6,2.6,0,0,1,3.6.1,2.6,2.6,0,0,1-.1,3.6A30,30,0,0,1-37.5,24Z" transform="translate(136.2 54.4)"/><path class="cls-1" d="M-34.4,38.1c-13.3,0-25.2-11.8-25.8-12.3a2.6,2.6,0,0,1,0-3.6,2.6,2.6,0,0,1,3.6,0c0.2,0.2,12,11.8,23.7,10.7,5.1-.5,9.5-3.4,13.2-8.6a2.6,2.6,0,0,1,3.6-.6,2.6,2.6,0,0,1,.6,3.6C-20.1,33.7-25.8,37.4-32.4,38h-2Z" transform="translate(136.2 54.4)"/><path class="cls-1" d="M-27.6,35.4h-0.1a1,1,0,0,1-.9-1c3.7-47.1-27.2-58.3-27.5-58.4a1,1,0,0,1-.6-1.2,1,1,0,0,1,1.2-.6c0.3,0.1,32.6,11.8,28.8,60.4A1,1,0,0,1-27.6,35.4Z" transform="translate(136.2 54.4)"/><path class="cls-1" d="M-96.7,55.5c-4.3,0-9.6-2.1-14.5-10.1a2.6,2.6,0,0,1,.9-3.5,2.6,2.6,0,0,1,3.5.9c3.5,5.8,7.5,8.3,11.7,7.5,10-2,20.2-20.6,21.9-31.7,1.5-9.3,4.9-50.5,4.9-50.9a2.6,2.6,0,0,1,2.8-2.3,2.6,2.6,0,0,1,2.3,2.8c-0.1,1.7-3.5,41.8-5,51.3-2,13-13.2,33.4-26,36Z" transform="translate(136.2 54.4)"/><path class="cls-1" d="M-67.8-24.4c-4.1,0-18.4-.8-24.6-11.2a2.6,2.6,0,0,1,.9-3.5,2.6,2.6,0,0,1,3.5.9c5.6,9.3,20.9,8.7,21.1,8.7a2.6,2.6,0,0,1,2.7,2.4,2.6,2.6,0,0,1-2.4,2.7h-1.1Z" transform="translate(136.2 54.4)"/><path class="cls-1" d="M-84.5-15h-1.8c-6.4-.6-11.9-4.6-16.4-11.7a2.6,2.6,0,0,1,.8-3.5,2.6,2.6,0,0,1,3.5.8c3.6,5.7,7.8,8.9,12.5,9.4,8.6,0.9,16.6-7.3,16.7-7.4a2.6,2.6,0,0,1,3.6-.1,2.6,2.6,0,0,1,.1,3.6C-65.8-23.7-74.2-15-84.5-15Z" transform="translate(136.2 54.4)"/><path class="cls-1" d="M-86-.5c-7.2,0-15.5-2.7-22.8-11.9a2.6,2.6,0,0,1,.4-3.6,2.6,2.6,0,0,1,3.6.4c14.9,18.6,34,5.6,34.8,5.1a2.6,2.6,0,0,1,3.6.6A2.6,2.6,0,0,1-67-6.3,36.8,36.8,0,0,1-86-.5Z" transform="translate(136.2 54.4)"/><path class="cls-1" d="M-92.6,11.3A28,28,0,0,1-115.2.7a2.6,2.6,0,0,1,.4-3.6,2.6,2.6,0,0,1,3.6.4C-105.1,5-96.5,7.7-85.6,5.6A50.8,50.8,0,0,0-70.5-.3,2.6,2.6,0,0,1-67,.6a2.6,2.6,0,0,1-.8,3.5C-68,4.2-79.6,11.3-92.6,11.3Z" transform="translate(136.2 54.4)"/><path class="cls-1" d="M-92.8,24a30,30,0,0,1-21.6-8.5,2.6,2.6,0,0,1-.1-3.6,2.6,2.6,0,0,1,3.6-.1c6.5,6.3,15,8.4,25.2,6.4a49,49,0,0,0,14.1-5.2,2.6,2.6,0,0,1,3.5.9,2.6,2.6,0,0,1-.9,3.5C-69.1,17.6-80.1,24-92.8,24Z" transform="translate(136.2 54.4)"/><path class="cls-1" d="M-95.9,38.1h-2c-6.7-.6-12.4-4.2-16.9-10.8a2.6,2.6,0,0,1,.6-3.6,2.6,2.6,0,0,1,3.6.6c3.7,5.3,8.1,8.2,13.2,8.6,11.7,1,23.5-10.6,23.6-10.7a2.6,2.6,0,0,1,3.6,0,2.6,2.6,0,0,1,0,3.6C-70.7,26.3-82.6,38.1-95.9,38.1Z" transform="translate(136.2 54.4)"/><path class="cls-1" d="M-102.7,35.4a1,1,0,0,1-1-.9C-107.5-14-75.2-25.8-74.9-25.9a1,1,0,0,1,1.2.6,1,1,0,0,1-.6,1.2c-0.3.1-31.2,11.4-27.5,58.4a1,1,0,0,1-.9,1h-0.1Z" transform="translate(136.2 54.4)"/><path class="cls-1" d="M-53.9,36.8l-1.6-1.7-1.6-2-2-2.8c-0.7-1.1-1.4-2.2-2.1-3.5l-1-2-1-2.1c-0.7-1.4-1.2-3-1.9-4.5s-1.1-3.2-1.6-4.8-0.9-3.3-1.2-4.9-0.6-3.3-.9-4.8L-69.2-.9c-0.1-1.5-.2-2.8-0.2-4.1s-0.1-2.5-.1-3.5v-5.1a3.8,3.8,0,0,1,3.9-3.8,3.8,3.8,0,0,1,3.8,3.9,3.9,3.9,0,0,1,0,.5v0.2l-0.4,2.1L-62.6-8c-0.2,1-.3,2-0.4,3.2s-0.3,2.5-.3,3.8V3.3c0,1.5.1,3,.2,4.6s0.3,3.2.5,4.8,0.5,3.2.8,4.7,0.7,3.1,1.1,4.5l0.6,2.1,0.7,2c0.5,1.3,1,2.5,1.5,3.6s1,2.1,1.5,3l1.3,2.2Z" transform="translate(136.2 54.4)"/><path class="cls-1" d="M-79.1,44.4l1.3-1.9,1.3-2.2c0.5-.9,1-1.9,1.5-3s1-2.3,1.5-3.6l0.7-2,0.6-2.1c0.5-1.4.8-3,1.1-4.5s0.6-3.1.8-4.7,0.4-3.2.5-4.8,0.1-3.1.2-4.6V6.7C-69.7,5.3-69.9,4-70,2.8S-70.2.6-70.4-.4l-0.4-2.5L-71.2-5V-5.2A3.8,3.8,0,0,1-68-9.6a3.8,3.8,0,0,1,4.4,3.2,4.2,4.2,0,0,1,0,.6v5.1c0,1,0,2.2-.1,3.5s-0.1,2.7-.2,4.1l-0.5,4.6c-0.2,1.6-.6,3.2-0.9,4.8s-0.8,3.3-1.2,4.9-1,3.2-1.6,4.8-1.2,3.1-1.9,4.5l-1,2.1-1,2c-0.7,1.3-1.4,2.4-2.1,3.5l-2,2.8-1.6,2Z" transform="translate(136.2 54.4)"/></svg>