<svg id="Layer_1" data-name="Layer 1" xmlns="http://www.w3.org/2000/svg" viewBox="0 0 162.6 162.6"><defs><style>.cls-1{fill:#434444;}.cls-2{fill:#afafaf;}</style></defs><title>estatutos</title><rect class="cls-1" x="64.6" y="54.9" width="27.1" height="1.15"/><rect class="cls-1" x="64.6" y="59" width="27.1" height="1.15"/><rect class="cls-1" x="64.6" y="63.1" width="36.9" height="1.15"/><rect class="cls-1" x="64.6" y="67.2" width="36.9" height="1.15"/><rect class="cls-1" x="64.6" y="71.3" width="36.9" height="1.15"/><rect class="cls-1" x="64.6" y="75.4" width="36.9" height="1.15"/><rect class="cls-1" x="64.6" y="79.5" width="36.9" height="1.15"/><rect class="cls-1" x="64.6" y="83.6" width="36.9" height="1.15"/><path class="cls-1" d="M44.4,38.6H-10.9V-27.2H31.8L44.4-13.7V38.6ZM-9.7,37.4h53V-13.3L31.3-26h-41V37.4Z" transform="translate(66.3 73.1)"/><polygon class="cls-1" points="109.7 60.2 97.2 60.2 97.2 46.9 98.4 46.9 98.4 59 109.7 59 109.7 60.2"/><path class="cls-2" d="M15,89.5A81.4,81.4,0,0,1-66.3,8.2,81.4,81.4,0,0,1,15-73.1,81.4,81.4,0,0,1,96.3,8.2,81.4,81.4,0,0,1,15,89.5ZM15-72.1A80.4,80.4,0,0,0-65.3,8.2,80.4,80.4,0,0,0,15,88.5,80.4,80.4,0,0,0,95.3,8.2,80.4,80.4,0,0,0,15-72.1Z" transform="translate(66.3 73.1)"/><rect class="cls-1" x="64.6" y="54.9" width="27.1" height="1.15"/><rect class="cls-1" x="64.6" y="59" width="27.1" height="1.15"/><rect class="cls-1" x="64.6" y="63.1" width="36.9" height="1.15"/><rect class="cls-1" x="64.6" y="67.2" width="36.9" height="1.15"/><rect class="cls-1" x="64.6" y="71.3" width="36.9" height="1.15"/><rect class="cls-1" x="64.6" y="75.4" width="36.9" height="1.15"/><rect class="cls-1" x="64.6" y="79.5" width="36.9" height="1.15"/><rect class="cls-1" x="64.6" y="83.6" width="36.9" height="1.15"/><path class="cls-1" d="M44.4,38.6H-10.9V-27.2H31.8L44.4-13.7V38.6ZM-9.7,37.4h53V-13.3L31.3-26h-41V37.4Z" transform="translate(66.3 73.1)"/><polygon class="cls-1" points="109.7 60.2 97.2 60.2 97.2 46.9 98.4 46.9 98.4 59 109.7 59 109.7 60.2"/><path class="cls-2" d="M15,89.5A81.4,81.4,0,0,1-66.3,8.2,81.4,81.4,0,0,1,15-73.1,81.4,81.4,0,0,1,96.3,8.2,81.4,81.4,0,0,1,15,89.5ZM15-72.1A80.4,80.4,0,0,0-65.3,8.2,80.4,80.4,0,0,0,15,88.5,80.4,80.4,0,0,0,95.3,8.2,80.4,80.4,0,0,0,15-72.1Z" transform="translate(66.3 73.1)"/></svg>